<svg width="1021" height="1057" viewBox="0 0 1021 1057" fill="none" xmlns="http://www.w3.org/2000/svg">
<path d="M29.0001 2.89996C17.5001 6.29996 12.5001 8.79996 8.4001 13.2C2.9001 18.9 0.600098 24.6 0.600098 32.5C0.600098 38.8 3.7001 50.2 29.9001 140.5C46.4001 197.3 60.4001 243.6 61.8001 246.3C64.9001 252.1 68.7001 255.5 75.8001 258.8C80.4001 260.9 82.1001 261.1 88.3001 260.7C92.3001 260.4 96.6001 259.9 98.0001 259.5L100.5 258.9L121.8 328.2C133.4 366.4 143 398.1 143 398.8C143 399.4 141.4 402.5 139.4 405.6C131.2 418.4 127 432.5 126.3 450C125.8 459.6 126.1 463 127.9 469.9C132.6 488.5 142.3 498 156.7 498C160.1 498 164 497.6 165.3 497.1L167.7 496.2L168.3 520.8C169.5 567.8 174.6 598.6 185.6 626.2C203 670 233.6 709.8 259.4 722.3C267.9 726.4 282 731.1 298.4 735.1C305 736.7 310.7 738.3 311.1 738.7C313.9 741.6 315.2 776.4 313.1 788C310.5 801.9 298.3 834 294.8 836.1C294.2 836.5 291.2 837.1 288 837.4C277.8 838.6 263.8 842.9 253 848.2C230.5 859.4 218.1 877.8 218 900.3C218 908.7 221.5 943.3 224 960.4C225.1 967.5 226 973.6 226 974.1C226 974.5 223.6 976 220.6 977.3C208 983.1 198.4 991.6 193.9 1000.9C190.4 1008 190.6 1018.7 194.4 1026.3C196.6 1031 198.1 1032.6 202.3 1035C220.7 1045.7 266.3 1051.7 353.5 1055.1C391.9 1056.6 649.7 1056.6 687.5 1055.1C773 1051.7 816.3 1046.2 836 1036.3C842.9 1032.8 843.7 1032 846.5 1026.6C850.5 1018.7 850.7 1008.2 847 1000.5C843.4 992.9 834 984.3 823.7 979.1C818.9 976.6 815 974.5 815 974.3C815 974.1 815.7 969.8 816.5 964.7C818.8 949.8 823 908.7 823 900.3C822.9 877.3 811.2 859 789.5 847.8C779.1 842.6 773.7 840.7 762 838.2C757.4 837.3 753.7 836.2 753.8 835.7C753.9 835.3 754 826.6 754 816.4V797.8L761.4 806.8C772.5 820.2 780.5 826.1 794.5 831.3C810.1 837 830.8 836.1 846 828.9C858.3 823.1 882.3 803.6 889.4 793.7C906 770.5 907.4 740.4 893.1 717.4C891 714.1 877.3 696.7 862.6 678.7C838.8 649.5 836 645.8 837.2 644.2C837.9 643.2 847.2 632.4 857.9 620.2L877.3 598.1L880.4 600.4C889.7 607.4 902 610 909.5 606.4C912.4 605.1 926.5 589.5 965.4 545.1C994 512.3 1018.3 483.9 1019.2 482C1022.4 475.8 1021.3 467 1016.1 458.9C1012 452.4 994.7 437.3 987.5 433.8C979.7 430.1 970.4 429.9 964.7 433.3C961.1 435.4 861 548.9 856.9 555.5C855.5 557.6 855 560.4 855 565.1C855 572.9 857.8 579.4 863.9 585.6L867.9 589.6L847.8 612.7L827.6 635.8L823.9 631.3C818.3 624.4 810.4 618.4 801.5 613.9C790.5 608.5 781.3 606.7 767.4 607.3L756.3 607.7L762 600.1C773.8 584.4 782.2 568.6 788 551.1C792.9 536.5 794.9 526.7 795.9 512.3C798.3 480.4 790.7 448.8 773.6 419L769.2 411.5L765.6 385C752.4 289.8 745 259 732 246C726.5 240.5 722.6 239.7 708.8 241.1C676 244.3 632.6 261.5 581.7 291.4L566.9 300.1L555.7 299.1C549.5 298.5 535.1 298 523.5 298C512 298 497.5 298.5 491.3 299.1L480.1 300.1L465.3 291.4C414.3 261.4 371 244.3 337.7 241C324.4 239.7 320.4 240.6 314.8 246.2C302.9 258.1 295.2 287.8 284.4 364C281.8 382.4 279.6 397.6 279.4 397.8C279.3 398 275 393.9 269.9 388.7C256.4 375.1 246.9 370.8 223.8 367.4L220 366.9V282V197H226.4C235.5 197 249.5 194.3 256.2 191.3C259.4 189.9 263.6 187 265.5 184.9L269 181V106V31.1L265.9 27.6C262.3 23.5 255.1 19.8 246 17.3C240.6 15.8 235.3 15.5 214 15.5C186.3 15.5 181 16.2 170.5 21C162.7 24.5 158.3 29.1 157.5 34.4C157.2 36.7 157 70.4 157.2 109.5L157.5 180.5L159.7 183.6C162.4 187.4 171.5 192.3 179.9 194.5C183.4 195.4 190.9 196.4 196.6 196.7L207 197.3V282.5V367.7L199.3 368.9C184.8 371.2 167.7 378.4 157.8 386.2C155.7 387.9 153.8 389.1 153.6 388.9C153.2 388.4 114.5 261.9 113.5 257.8C112.9 255.4 113.3 254.9 116.7 253.2C121.8 250.5 127.4 244.5 129.9 239C134.3 229.3 134.7 231.1 102.1 118.7C70.1001 8.59996 70.8001 10.7 62.6001 5.09996C53.7001 -0.90004 44.2001 -1.50004 29.0001 2.89996ZM355 256.4C380.3 262.3 413.5 276.3 447.9 295.8C456.9 300.9 459.7 302.9 458.4 303.3C457.3 303.6 452.8 304.6 448.3 305.5L440.1 307.1L426.8 299.7C401.4 285.5 377.7 275.8 359 272C346.2 269.4 341 269.4 337.6 272.1C330.1 278 324.6 298.2 317.6 345.7L314 370L303.5 380.6L292.9 391.2L293.5 387.4C293.8 385.2 295.4 374 297.1 362.5C306.4 297.3 314.3 265.2 323.4 255.1C325.4 252.9 325.9 252.8 335 253.4C340.2 253.7 349.2 255.1 355 256.4ZM723.7 255.2C730.1 262.3 736.4 282.4 742.4 315C744.4 325.8 749.4 358.4 753.5 387.4L754.1 391.2L743.5 380.6L733 370L729.4 345.7C722.4 298.2 716.9 278 709.4 272.1C706 269.4 700.8 269.4 688 272C669.3 275.8 645.6 285.5 620.2 299.7L606.9 307.1L598.7 305.5C594.2 304.6 589.7 303.6 588.6 303.3C587.3 302.9 590.1 300.9 599.1 295.8C634.6 275.7 671.9 260.2 695.5 255.6C707.2 253.4 707.9 253.3 715.1 253.1C720.7 253 721.9 253.3 723.7 255.2ZM542.8 311C622.6 315.9 691.6 345 737.5 393.2C750.6 406.9 759.5 419.5 767.5 435.5C779.2 459.1 783.3 476 783.3 501C783.3 518.8 781.5 530.5 776.4 546C773.5 554.7 765.9 570.9 760.8 579.3C757.8 584.2 757.1 584.8 756.6 583.2C755.8 580.9 723.2 565 719.1 565C717.6 565 715.9 565.5 715.2 566.2C713.5 567.9 713.7 572.5 715.5 574C717.7 575.8 750 591 751.7 591C753.7 591 748.8 597.2 736.5 609.9C693.3 654.8 633.3 681.6 557.5 690.2C543.3 691.8 503.7 691.8 489.5 690.2C444.4 685.1 406.9 674.1 372 655.9C358.7 648.9 343.5 639.1 333.5 631.2C318.7 619.4 291.7 591 295.3 591C297 591 329.3 575.8 331.5 574C333.3 572.5 333.5 567.9 331.8 566.2C331.1 565.5 329.4 565 327.9 565C324.7 565 292.2 580.3 290.5 582.7C289.5 584.1 288.8 583.4 285.6 578.2C276.5 563.1 269.7 545.8 265.9 528C262.8 513.3 262.8 488.9 265.8 474.5C268.9 460.2 272.5 449.4 278.4 437.7L283.5 427.5L293.5 426.3C316.8 423.3 362.3 415.2 371.2 412.4C372.7 412 372.9 412.3 372.4 414.7C371.7 418.1 377.3 433.7 379.8 435.7C382.4 437.8 385.8 437.2 387.6 434.4C389.2 432 389.2 431.5 386 423.2C384.2 418.4 381.9 413.6 380.9 412.4C379 410.4 379 410.4 389.3 407.6C443.1 392.8 481.5 366.3 498.4 332.3C501.6 325.8 504.5 317.8 505.2 313.5C505.7 310.1 516.4 309.4 542.8 311ZM233.6 381.5C248.9 385.4 262.4 395.6 270.7 409.3L274.7 416.1L268.4 428.6C264.9 435.5 260.4 446.2 258.4 452.3C255.2 462.4 254.6 463.5 252.4 463.6C248.9 463.9 247.1 465.7 246.5 469.9C244.8 480.3 240.5 486 234.5 486C228.2 486 223.4 480.9 218.5 468.9C217.7 467.1 216.6 466.4 214 466.2C209.2 465.9 208.2 466.8 206.5 473.4C203.8 483.7 200 487 192.5 485.6C187.9 484.7 183.6 481 181 475.5C177.8 468.9 173.8 467.2 170 471C168.9 472.1 168 474.1 168 475.5C168 481.5 163.3 486 157 486C150.2 486 144.5 480.6 140.8 470.4C139 465.6 138.6 462.4 138.7 453C138.8 423.6 152.3 401.4 177.5 388.7C183.4 385.7 194.8 382.2 201.7 381.1C210.7 379.7 227.4 380 233.6 381.5ZM216.1 490.6C216.8 491.5 219.7 493.5 222.5 495.1C230.6 499.8 242.7 499 249.1 493.4C250.5 492.1 250.7 493 250.8 503.7C251.2 543.8 266.6 580.7 297.6 615.5C315.1 635.2 345 657.1 372.9 670.7C381.5 674.8 395.7 681.8 404.5 686.1C439.6 703.2 472.5 713.2 502 715.6L510.2 716.3L501.9 718.7C475.7 726.2 454.7 748.2 448.4 774.5C446 784.6 446.2 802.3 448.9 812.3C455.9 838.7 477.2 860 503.9 867.2C514.5 870 532.5 870 543.1 867.2C569.8 860 591.1 838.7 598.1 812.3C600.8 802.3 601 784.6 598.6 774.5C592.2 747.8 569.7 724.8 543.4 718.1L536.5 716.4L544.9 715.6C565.5 713.9 591.7 707.4 614.8 698.5C625.7 694.2 652.3 681.7 678.3 668.5C687.1 664.1 691 662.6 690.4 663.8C685.8 674.5 684.7 693.5 688 706.4C690.9 717.7 695.6 725.9 709 742.5C719.5 755.4 720.9 757.5 719.7 758.9C718.9 759.8 708.6 771.7 696.7 785.3C679.2 805.3 675 810.7 675 813C675 816.7 677.4 819 681 819C683.6 819 686.6 815.9 705.1 794.7C716.8 781.4 726.9 769.8 727.7 769C729 767.7 729.6 768 732.6 771.5C734.5 773.7 736.9 776.6 737.8 777.9C741.3 783.1 743.2 815.8 741 835C739.8 845.6 740.8 847.6 747.7 848.5C777.3 852.2 798.3 863.8 806.2 880.7C810.9 890.7 811.5 897 809.6 917.1C807.2 941.8 805.3 956.9 802.9 969.3C800.4 982.3 800.9 983.6 809.2 986.3C818.6 989.2 829.3 996.5 834.2 1003.3L836.2 1006L832.6 1003.9C825.4 999.7 818 1004 818 1012.4C818.1 1016.8 819.3 1019 822.7 1020.8C826.6 1022.9 830.9 1022.2 834.1 1019.1C837.4 1015.7 837.5 1015.8 835.6 1020.4C831.3 1030.7 792.8 1037.3 707.5 1042.2C679.6 1043.7 408.2 1044.5 365 1043.1C280.7 1040.3 230.3 1034.6 211.1 1025.7C208.1 1024.3 206.3 1022.7 205.4 1020.4C203.6 1016 203.6 1009.6 205.5 1005.6C208.8 998.7 221.1 989.6 231.8 986.3C240.1 983.7 240.7 982.2 238.1 969.8C235.2 954.9 230.8 915.3 230.7 902.5C230.6 893.3 231 890.5 232.9 885.8C240.1 867.4 260.6 854.2 288.5 850C304.9 847.5 302.7 849 309.5 835.5C315.9 822.7 321.9 806.3 324.7 794C328.3 777.8 325.9 732.9 321.1 728.6C320.2 727.8 314.3 726 308 724.5C282.3 718.8 264.3 712.1 254.8 705C238.3 692.5 218.9 666.9 205.2 639.5C188.3 605.3 182 574.4 180.3 516.7L179.7 494L184.1 496C189.3 498.3 199.5 498.7 204.3 496.6C206.1 495.9 208.9 493.9 210.6 492.2C214 488.6 214.3 488.5 216.1 490.6ZM784.4 621C794 623.4 802.3 627.8 808.9 633.8C817.5 641.8 881.8 721.8 885 728.5C893.1 745.6 892.2 765.3 882.5 781.5C877.7 789.4 874.9 792.3 860.2 804.1C843 818 835.4 821.5 820.5 822.6C806.6 823.6 791.8 818.7 781.3 809.5C773.9 803 709.2 723.4 704.8 715.3C698 703 696.4 689.6 700 675.6C702.4 666 706 659.2 712.4 652.2C719.5 644.5 740.6 627.8 747.5 624.6C759.3 619 771.8 617.8 784.4 621ZM532.9 726.1C559 730.3 579.6 747.7 587.7 772.5C589.9 779.3 590.3 782.2 590.3 792.5C590.3 802.8 589.9 805.7 587.7 812.5C584.1 823.4 578.8 832.1 570.9 839.9C563.1 847.8 554.4 853.1 543.5 856.7C536.6 859 533.8 859.4 523.5 859.4C513.2 859.4 510.4 859 503.5 856.7C492.6 853.1 483.9 847.8 476.1 839.9C453.7 817.6 449.9 782.5 466.9 756.4C481.2 734.3 508 722 532.9 726.1Z" fill="black"/>
<path d="M427.3 409C424.8 410 424.8 410.2 422 424.5C420.3 433.4 420.3 434.8 421.6 436.7C422.6 438.2 424 439 426 439C430 439 431.4 436.4 433.4 425.4C435.5 413.3 435.4 411.4 432.8 409.6C430.3 407.8 430.3 407.8 427.3 409Z" fill="black"/>
<path d="M614.2 409.6C612.9 410.5 612 412.2 612 413.8C612 418.4 615.7 436 617 437.5C618.9 439.8 623.7 439.4 625.4 436.7C626.7 434.7 626.7 433.2 624.6 422.7C623.3 416.2 621.9 410.5 621.4 410.1C619.5 408.3 616.4 408.1 614.2 409.6Z" fill="black"/>
<path d="M665.8 412.7C664.9 413.7 662.8 418.4 661 423.2C657.8 431.5 657.8 432 659.4 434.4C661.2 437.2 664.6 437.8 667.2 435.7C669 434.2 675 419.4 675 416.3C675 411.6 668.9 409.2 665.8 412.7Z" fill="black"/>
<path d="M399.5 455.6C389.2 457.3 377.3 461.7 373.9 465.1C370.3 468.7 372.4 475 377.3 475C378.5 475 382.9 473.7 387 472.1C405 465.1 426.1 466.4 441.6 475.5C447.1 478.7 454.6 487.1 456.1 491.8C457.7 496.8 459.8 499 463 499C472.6 499 469.6 484.5 457.5 472.5C446.6 461.6 432.5 456.2 413.5 455.5C407.5 455.3 401.2 455.4 399.5 455.6Z" fill="black"/>
<path d="M623.7 456C603.5 459.7 587.4 470.1 581.1 483.6C576.6 493.2 577.7 499 584 499C587.2 499 589.3 496.8 590.9 491.8C592.4 487.1 599.9 478.7 605.4 475.5C620.9 466.4 642 465.1 660 472.1C664.1 473.7 668.5 475 669.7 475C675.2 475 677 467.5 672.3 464.3C668.5 461.7 662.6 459.2 656 457.4C649.4 455.6 630.4 454.8 623.7 456Z" fill="black"/>
<path d="M289.7 506.5C287.7 508.5 287.5 511 289.3 513.2C290.6 515 324.3 526 328.3 526C331.6 526 333.2 523.8 332.8 519.8L332.5 516.5L316.5 511.2C297.6 505 292.1 504 289.7 506.5Z" fill="black"/>
<path d="M733 510.3C723.9 513.2 715.9 515.9 715.2 516.4C713.7 517.3 713.6 523.2 715.2 524.8C717.2 526.8 720.5 526.2 738.8 520.5C758.7 514.2 761 512.6 758 506.9C756.3 503.9 751.1 504.6 733 510.3Z" fill="black"/>
<path d="M368 510.3C350.8 515.1 348 528.7 362.5 536C366.9 538.2 368.8 538.5 378.5 538.5C387.9 538.5 390.1 538.2 393.6 536.3C411.1 527 402.6 510.3 380 509.3C375.9 509.2 370.5 509.6 368 510.3Z" fill="black"/>
<path d="M658.5 510.3C645.2 514.8 640.2 523.4 646.6 531C651.7 536.9 656.2 538.5 668.5 538.5C678.2 538.5 680.1 538.2 684.5 536C702.2 527.1 693.6 510.5 670.8 509.4C665.5 509.1 661 509.5 658.5 510.3Z" fill="black"/>
<path d="M508.2 519.2C503.8 521.4 504.3 524.3 511.5 536.7C518.1 548.2 518.2 548.4 517 552.4C513 566.1 501.6 575 486.1 576.6C474.6 577.8 461.3 572.2 454.4 563.2C450.9 558.6 448 550.8 448 545.8C448 539.7 438.9 538.6 437.4 544.5C436.3 548.8 439 559.6 442.6 565.7C450.6 579.3 466.5 588 483.1 588C497.9 588 515.5 579.3 521.7 568.8L523.3 566.2L526 569.8C534 580.7 549.2 588 563.9 588C580.5 588 596.4 579.3 604.4 565.7C608 559.6 610.7 548.8 609.6 544.5C608.1 538.6 599 539.7 599 545.8C599 550.8 596.1 558.6 592.6 563.2C585.7 572.2 572.4 577.8 560.9 576.6C545.4 575 534 566.1 530 552.4C528.8 548.4 528.9 548.2 535.5 536.7C542.8 524.1 543.3 521.4 538.5 519.2C535.2 517.7 511.3 517.7 508.2 519.2Z" fill="black"/>
<path d="M288.2 542.2C286.4 544 286.8 548.5 288.8 550.3C290.4 551.8 293.4 552 309.9 552C321.2 552 329.9 551.6 331.1 551C333.3 549.8 333.8 544.2 331.8 542.2C330.9 541.3 324.7 541 310 541C295.3 541 289.1 541.3 288.2 542.2Z" fill="black"/>
<path d="M715.2 542.2C713.2 544.2 713.7 549.8 715.9 551C717.1 551.6 725.8 552 737.3 552C754.8 552 756.8 551.8 758.3 550.2C760.3 548 760.5 543.9 758.8 542.2C757.9 541.3 751.7 541 737 541C722.3 541 716.1 541.3 715.2 542.2Z" fill="black"/>
<path d="M228.3 459.5C224.9 461.9 223.6 467.1 225.4 471.3C227.1 475.5 229.6 477 234.7 477C238.8 476.9 241 475.7 242.8 472.3C245.1 468.1 243.8 462.2 240.1 459.3C237.9 457.6 230.9 457.7 228.3 459.5Z" fill="black"/>
<path d="M186.9 462.9C183.1 466.8 183 471.6 186.6 475.9C188.8 478.5 189.9 479 193.7 479C197.3 479 198.7 478.4 201.2 476C203.9 473.2 204.2 472.4 203.7 468.7C202.5 460.2 193 456.9 186.9 462.9Z" fill="black"/>
<path d="M148.9 464.9C142.7 471.1 147 481 156 481C159.3 481 160.8 480.4 163.1 478.1C169.3 471.9 165 462 156 462C152.7 462 151.2 462.6 148.9 464.9Z" fill="black"/>
<path d="M309 845.3C307.1 846.2 306.4 847.5 306.2 850.2C305.8 854.6 305.8 854.6 320 860.3C361.6 876.9 388.6 907.5 390.7 940.3C391.4 950.1 392.9 953 397.3 953C401.6 953 403 950.1 403 941.4C402.9 907.6 377.4 874 336.5 853.9C329.1 850.3 312.7 843.8 311.6 844C311.5 844 310.4 844.6 309 845.3Z" fill="black"/>
<path d="M726.9 846.7C716.6 850.1 703 856.9 691.9 864.2C679.8 872.1 663.1 888.7 656.6 899.3C648 913.1 643 929.5 643 943.4C643 950.4 644.7 953 649.2 953C653.2 953 654.7 950.3 655.4 941.7C657 920.7 664.9 905.1 682.2 888.4C696.3 874.8 714.2 863.9 732.3 858C740.3 855.4 742.5 852.7 740 848.3C737.6 844.2 735.1 843.9 726.9 846.7Z" fill="black"/>
<path d="M488 989C485.4 991.6 485.5 995.3 488.1 1000.7C490.5 1005.6 496.1 1010.1 504 1013.2C508.8 1015.1 511.4 1015.4 523.5 1015.4C535.6 1015.4 538.2 1015.1 543 1013.2C553.9 1008.9 561 1001.2 561 993.7C561 990.4 557.8 987 554.7 987C552.1 987 549 989.8 549 992.2C549 995.1 544.9 998.9 539.2 1001.1C531.1 1004.3 515.9 1004.3 507.8 1001.1C502 998.8 498 995.1 498 992C498 989.7 494.8 987 492.2 987C491 987 489.1 987.9 488 989Z" fill="black"/>
<path d="M211.9 1006.9C206.5 1012.3 208.4 1020.7 215.6 1023C219.7 1024.4 224.2 1023 226.5 1019.6C228.3 1017.1 228.4 1010.1 226.7 1007.9C223.1 1003.2 216.2 1002.7 211.9 1006.9Z" fill="black"/>
<path d="M789.4 1005.9C783.1 1009.7 782.9 1019.4 789.1 1022.5C796.1 1026.2 804 1021.9 804 1014.5C804 1009.6 802.5 1007.1 798.5 1005.4C794.1 1003.6 793.1 1003.6 789.4 1005.9Z" fill="black"/>
<path d="M757.3 1007.5C752.7 1009.5 750.5 1014.3 751.9 1019.1C754.1 1026.3 762.7 1028.5 768.1 1023.1C773.2 1018 771.4 1009.4 764.8 1007.1C761 1005.8 761.2 1005.8 757.3 1007.5Z" fill="black"/>
<path d="M244.6 1010.6C241.6 1013.7 241 1020.1 243.5 1023.7C245.8 1026.9 251.5 1028.3 255.6 1026.5C259.5 1024.9 261 1022.4 261 1017.2C261 1011.6 257.3 1008 251.5 1008C248.3 1008 246.7 1008.6 244.6 1010.6Z" fill="black"/>
<path d="M278.3 1013.5C275.1 1015.8 273.7 1021.5 275.5 1025.6C277.1 1029.5 279.6 1031 284.8 1031C293.2 1031 297 1021.7 291.4 1015.1C289.3 1012.5 288.1 1012 284.6 1012C282.3 1012 279.5 1012.7 278.3 1013.5Z" fill="black"/>
<path d="M758.5 634.6C755 638.4 755 644.8 758.6 648.4C760.7 650.4 762.3 651 765.7 651C771.9 651 775 647.8 775 641.5C775 635.1 771.9 632 765.5 632C761.8 632 760.4 632.5 758.5 634.6Z" fill="black"/>
<path d="M731.9 653.9C728 657.9 727.9 662.8 731.8 667.1C734.2 669.7 735.4 670.3 739 670.3C742.7 670.3 743.8 669.8 746.3 667C754.8 657.5 740.9 644.9 731.9 653.9Z" fill="black"/>
<path d="M707.5 676.2C704.2 678.1 703.1 680.3 703 684.6C703 692.5 710.1 697.1 716.8 693.6C720.6 691.6 722 689.2 722 684.5C722 677.4 713.7 672.6 707.5 676.2Z" fill="black"/>
</svg>
