<svg width="64" height="70" viewBox="0 0 64 70" fill="none" xmlns="http://www.w3.org/2000/svg">
<path d="M58.5942 28.219C55.4848 27.7659 52.6567 30.2034 52.2036 33.2502L45.6567 18.8442C44.0005 15.0004 38.6723 14.1411 36.1411 17.3911L34.2973 13.3442C31.1723 6.7504 21.5943 10.5473 23.8593 17.3754C19.7343 17.141 16.8437 21.7035 18.6562 25.4848L20.375 29.266C16.25 29.0316 13.4062 33.6254 15.2188 37.391L27.7968 65.063C29.6874 69.2505 34.6874 71.0318 38.7498 69.1724L58.2028 60.3286C61.0622 59.0317 62.9528 56.1567 63.0466 53.0161L63.5466 34.4541C63.5466 31.6572 61.8435 28.626 58.6091 28.2353L58.5942 28.219ZM59.9223 52.907C59.8754 54.8601 58.6879 56.6414 56.9067 57.4539L37.4537 66.2977C34.8756 67.4696 31.8131 66.3289 30.6412 63.7508L18.0632 36.0788C16.6413 32.9382 20.9382 30.8132 22.4538 33.8132C22.5007 33.9069 22.5632 33.9694 22.6257 34.0476C22.6413 34.1413 22.6413 34.2195 22.6882 34.3132L28.9694 48.1102C29.3287 48.9071 30.2663 49.2352 31.0319 48.8914C31.8131 48.5321 32.1725 47.6102 31.8131 46.8289L25.5319 33.0319C25.485 32.9382 25.4225 32.8757 25.36 32.7976C25.3444 32.7038 25.3444 32.6257 25.2975 32.5319L21.5006 24.1881C20.0787 21.0787 24.3912 18.9537 25.9068 21.9069C25.8912 21.9069 36.2978 44.7659 36.2978 44.7659C36.6572 45.5628 37.5947 45.8909 38.3603 45.5472C39.1416 45.1878 39.5009 44.266 39.1416 43.4847L28.7666 20.6877V20.6408L26.876 16.4846C26.5947 15.8596 26.5791 15.1252 26.8604 14.4846C27.6885 12.469 30.5948 12.5627 31.4698 14.6409L35.3917 23.2503C35.3917 23.2503 35.4542 23.3284 35.4698 23.3753C35.4542 23.5628 43.6104 41.2663 43.6573 41.4373C44.0167 42.2342 44.9542 42.5623 45.7198 42.2185C46.501 41.8591 46.8604 40.9373 46.501 40.156C46.4229 40.0466 38.3916 22.203 38.2666 22.125C36.9072 18.9219 41.2666 16.9062 42.8291 20.1406L50.9541 37.9996L49.2666 44.2184C45.5478 44.7184 41.8291 48.2496 42.3447 52.859C42.3916 53.6871 43.0791 54.3278 43.9072 54.3278C44.7979 54.3278 45.5166 53.5778 45.4697 52.6716C45.0322 48.7654 48.6259 47.2497 50.5635 47.1716C51.2354 47.1404 51.8291 46.6716 52.001 46.0154L54.1104 38.2498L55.4854 33.156C56.626 30.0154 60.4854 31.1091 60.4229 34.3904L59.9385 52.9214L59.9223 52.907Z" fill="black"/>
<path d="M10.2188 25.5C7.85942 27.6719 4.59382 33.8281 9.14072 41.578C9.4376 42.078 9.95322 42.3436 10.4845 42.3436C11.6564 42.3749 12.4533 40.9998 11.8283 39.9842C7.45332 32.5311 12.1096 27.9842 12.3283 27.7812C13.8127 26.3906 11.7189 24.1093 10.2033 25.4843L10.2188 25.5Z" fill="black"/>
<path d="M7.10912 24.906C8.59352 23.5154 6.49974 21.2341 4.98412 22.6091C4.89037 22.6872 -4.12528 31.2185 3.59352 44.3751C3.8904 44.8751 4.40602 45.1407 4.93732 45.1407C6.10922 45.172 6.90612 43.7969 6.28112 42.7813C-0.140777 31.8593 6.79674 25.1723 7.09362 24.8903L7.10912 24.906Z" fill="black"/>
<path d="M47.9692 7.90601C43.7661 5.57791 38.7192 7.04663 38.5004 7.10913C36.5473 7.73413 37.4223 10.6403 39.391 10.1091C42.0316 9.29663 48.3129 9.23413 49.657 15.1091C49.8758 15.9529 50.7664 16.4372 51.5789 16.2029C52.4071 15.9686 52.907 15.1091 52.6727 14.281C51.8602 11.3279 50.2817 9.18721 47.9692 7.90601Z" fill="black"/>
<path d="M39.1252 3.82801C39.1252 3.82801 45.3596 2.03111 50.1412 4.68739C52.61 6.06239 54.3287 8.43739 55.235 11.7343C55.4537 12.578 56.3444 13.0624 57.1569 12.8281C57.985 12.5937 58.485 11.7343 58.2507 10.9062C57.1101 6.74999 54.8913 3.73429 51.6413 1.93739C45.7038 -1.35951 38.5323 0.734288 38.2353 0.827988C36.2822 1.45299 37.1565 4.35921 39.1252 3.82801Z" fill="black"/>
</svg>
