<svg width="20" height="20" viewBox="0 0 20 20" fill="none" xmlns="http://www.w3.org/2000/svg">
<mask id="mask0_1514_2411" style="mask-type:luminance" maskUnits="userSpaceOnUse" x="0" y="0" width="20" height="20">
<path d="M20 0H0V20H20V0Z" fill="white"/>
</mask>
<g mask="url(#mask0_1514_2411)">
<path d="M10.249 9.20004C10.249 9.19004 10.231 9.14804 10.226 9.13504C10.2046 9.09374 10.1721 9.05923 10.1322 9.03538C10.0923 9.01153 10.0465 8.9993 10 9.00004C9.95357 9.00018 9.90812 9.01314 9.86859 9.03749C9.82906 9.06184 9.797 9.09664 9.776 9.13804C9.776 9.14904 9.75603 9.19104 9.75403 9.20004C9.52023 9.73573 9.13501 10.1915 8.64575 10.5112C8.1565 10.831 7.58449 11.0009 7 11C6.20435 11 5.44127 10.684 4.87866 10.1214C4.31605 9.55876 4 8.79569 4 8.00004C4 7.00704 4.344 7.00004 6 7.00004C6.316 7.00004 6.656 7.00004 7 7.00604V7.00004H13V7.00604C13.345 7.00004 13.685 7.00004 14 7.00004C15.657 7.00004 16 6.97704 16 8.00004C16 8.79569 15.6839 9.55876 15.1213 10.1214C14.5587 10.684 13.7956 11 13 11C12.416 11.0003 11.8446 10.8302 11.356 10.5104C10.8673 10.1907 10.4826 9.73527 10.249 9.20004Z" fill="#66BB6A"/>
<path d="M10 2C8.14646 1.99795 6.34958 2.63879 4.91564 3.81328C3.4817 4.98777 2.49946 6.62321 2.13635 8.44083C1.77324 10.2585 2.05173 12.1458 2.92437 13.781C3.797 15.4163 5.20975 16.6983 6.92181 17.4086C8.63387 18.1188 10.5393 18.2134 12.3132 17.676C14.0872 17.1387 15.6198 16.0028 16.65 14.4619C17.6802 12.921 18.1441 11.0705 17.9627 9.22589C17.7812 7.38126 16.9657 5.65663 15.655 4.346C14.1551 2.84595 12.1213 2.00224 10 2ZM10 1C11.78 1 13.5201 1.52784 15.0001 2.51677C16.4802 3.50571 17.6337 4.91131 18.3149 6.55585C18.9961 8.20038 19.1743 10.01 18.8271 11.7558C18.4798 13.5016 17.6226 15.1053 16.364 16.364C15.1053 17.6226 13.5016 18.4798 11.7558 18.8271C10.01 19.1743 8.20038 18.9961 6.55585 18.3149C4.91131 17.6337 3.50571 16.4802 2.51677 15.0001C1.52784 13.5201 1 11.78 1 10C1.00265 7.61386 1.95171 5.32622 3.63896 3.63896C5.32622 1.95171 7.61386 1.00265 10 1Z" fill="#66BB6A"/>
<path d="M9.26847 14.7674C8.46181 14.7672 7.65797 14.6722 6.87347 14.4844C6.80988 14.4678 6.7502 14.4388 6.69783 14.399C6.64547 14.3593 6.60145 14.3097 6.56829 14.2529C6.53513 14.1962 6.51349 14.1334 6.5046 14.0683C6.4957 14.0032 6.49974 13.937 6.51647 13.8734C6.5331 13.8098 6.56211 13.7501 6.60183 13.6978C6.64155 13.6454 6.6912 13.6014 6.74795 13.5682C6.8047 13.5351 6.86743 13.5134 6.93255 13.5045C6.99767 13.4956 7.06391 13.4997 7.12747 13.5164C7.18747 13.5314 10.8435 14.4504 12.6475 12.6464C12.7412 12.5527 12.8684 12.5 13.001 12.5C13.1336 12.5 13.2607 12.5527 13.3545 12.6464C13.4482 12.7402 13.5009 12.8673 13.5009 12.9999C13.5009 13.1325 13.4482 13.2596 13.3545 13.3534C12.2314 14.3437 10.7634 14.8517 9.26847 14.7674Z" fill="#66BB6A"/>
</g>
</svg>
