<svg width="82" height="82" viewBox="0 0 82 82" fill="none" xmlns="http://www.w3.org/2000/svg">
<path d="M40.9996 79.9016C62.4835 79.9016 79.8996 62.4854 79.8996 41.0016C79.8996 19.5177 62.4835 2.10156 40.9996 2.10156C19.5157 2.10156 2.09961 19.5177 2.09961 41.0016C2.09961 62.4854 19.5157 79.9016 40.9996 79.9016Z" stroke="#FFA726" stroke-width="3" stroke-miterlimit="10" stroke-linecap="round"/>
<path d="M25.0998 32.2016C26.0939 32.2016 26.8998 31.3957 26.8998 30.4016C26.8998 29.4074 26.0939 28.6016 25.0998 28.6016C24.1057 28.6016 23.2998 29.4074 23.2998 30.4016C23.2998 31.3957 24.1057 32.2016 25.0998 32.2016Z" stroke="#FFA726" stroke-width="3" stroke-miterlimit="10" stroke-linecap="round"/>
<path d="M49.8 32.2016C50.7941 32.2016 51.6 31.3957 51.6 30.4016C51.6 29.4074 50.7941 28.6016 49.8 28.6016C48.8059 28.6016 48 29.4074 48 30.4016C48 31.3957 48.8059 32.2016 49.8 32.2016Z" stroke="#FFA726" stroke-width="3" stroke-miterlimit="10" stroke-linecap="round"/>
<path d="M53.3996 37.4008C58.2597 37.4008 62.1996 33.4609 62.1996 28.6008C62.1996 23.7407 58.2597 19.8008 53.3996 19.8008C48.5395 19.8008 44.5996 23.7407 44.5996 28.6008C44.5996 33.4609 48.5395 37.4008 53.3996 37.4008Z" stroke="#FFA726" stroke-width="3" stroke-miterlimit="10" stroke-linecap="round"/>
<path d="M28.5998 37.4008C33.4599 37.4008 37.3998 33.4609 37.3998 28.6008C37.3998 23.7407 33.4599 19.8008 28.5998 19.8008C23.7397 19.8008 19.7998 23.7407 19.7998 28.6008C19.7998 33.4609 23.7397 37.4008 28.5998 37.4008Z" stroke="#FFA726" stroke-width="3" stroke-miterlimit="10" stroke-linecap="round"/>
<path d="M22.8994 59.6016C27.4994 55.0016 33.9994 52.1016 40.9994 52.1016C47.9994 52.1016 54.4994 55.0016 59.0994 59.6016" stroke="#FFA726" stroke-width="3" stroke-miterlimit="10" stroke-linecap="round"/>
</svg>
