<svg width="68" height="96" viewBox="0 0 68 96" fill="none" xmlns="http://www.w3.org/2000/svg">
<path d="M0.687717 34.9632C-0.657283 25.3852 2.74472 18.2182 2.74472 18.2182C3.26772 16.8842 5.18472 14.0693 7.24772 12.1333L11.5727 9.40625C12.0957 9.63625 12.4977 10.0413 12.7607 10.5243C8.80372 15.4412 6.45172 21.8422 6.56472 28.8162C6.56572 28.8802 6.57072 28.9432 6.57172 29.0052L6.31572 29.6543C6.41772 29.7133 6.51072 29.7832 6.60472 29.8522C6.94872 36.5952 9.56972 42.6783 13.6617 47.2733C13.6617 47.2733 14.4697 48.1572 15.5797 49.5672C15.5797 49.5672 17.5367 52.1012 18.4957 54.3132C19.4567 56.5232 20.5307 59.7172 20.1847 61.8602C19.8387 64.0042 15.2167 92.6653 15.2167 92.6653C14.9537 94.2993 13.4887 95.3963 11.9457 95.1133L7.32872 94.2703C5.78472 93.9883 4.74872 92.4343 5.01172 90.7993C5.01172 90.7993 12.7017 66.0332 11.9597 59.9792C11.2207 53.9242 2.02972 44.5412 0.687717 34.9632Z" fill="#FF4757"/>
<path d="M67.44 33.8952C68.477 24.2792 64.8479 17.2252 64.8479 17.2252C64.2829 15.9082 62.2749 13.1562 60.1529 11.2872L55.7419 8.69922C55.2259 8.94622 54.839 9.36422 54.591 9.85522C58.703 14.6432 61.258 20.9652 61.37 27.9392C61.371 28.0032 61.368 28.0662 61.369 28.1282L61.6439 28.7702C61.5449 28.8322 61.4529 28.9052 61.3629 28.9772C61.2339 35.7272 58.8089 41.8922 54.8669 46.6152C54.8669 46.6152 54.089 47.5242 53.023 48.9692C53.023 48.9692 51.1489 51.5652 50.2599 53.8062C49.3699 56.0462 48.401 59.2732 48.814 61.4032C49.229 63.5352 54.7659 92.0342 54.7659 92.0342C55.0799 93.6582 56.5799 94.7082 58.1119 94.3762L62.7009 93.3862C64.2349 93.0552 65.2219 91.4682 64.9059 89.8422C64.9059 89.8422 56.4269 65.3362 56.9739 59.2602C57.5199 53.1842 66.405 43.5122 67.44 33.8952Z" fill="#FF4757"/>
<path d="M53.1846 9.87708C48.3296 4.22608 41.2996 0.718077 33.5256 0.843077C19.1686 1.07308 7.72564 13.5871 7.96864 28.7941C8.08364 35.9491 10.7656 42.4241 15.0666 47.2521C15.0666 47.2521 19.7466 52.3611 22.1646 57.7871C24.5836 63.2141 24.1136 67.5531 24.1136 67.5531C24.1096 67.7011 24.0966 67.8471 24.0996 67.9961C24.1976 74.1371 28.9776 79.0411 34.7756 78.9481C40.5746 78.8551 45.1946 73.8001 45.0966 67.6591C45.0936 67.5101 45.0756 67.3661 45.0686 67.2181C45.0686 67.2181 44.4596 62.8961 46.7026 57.3951C48.0176 54.1701 50.1066 51.0401 51.6176 48.9921C52.6816 47.5471 53.4586 46.6381 53.4586 46.6381C57.4026 41.9141 59.8276 35.7491 59.9566 28.9991C59.9616 28.7181 59.9656 28.4351 59.9626 28.1501C59.9616 28.0871 59.9646 28.0251 59.9636 27.9611C59.8516 20.9871 57.2966 14.6651 53.1846 9.87708ZM32.3206 43.7741C32.6826 43.7741 32.9766 44.0681 32.9766 44.4301C32.9766 44.7921 32.6826 45.0861 32.3206 45.0861C31.9586 45.0861 31.6646 44.7921 31.6646 44.4301C31.6646 44.0681 31.9586 43.7741 32.3206 43.7741ZM30.3326 31.4901C30.0026 33.6051 27.5626 34.9351 24.8836 34.4631C22.2036 33.9881 20.3006 31.8901 20.6296 29.7751C20.9596 27.6601 23.3996 26.3301 26.0786 26.8021C28.7566 27.2741 30.6616 29.3751 30.3326 31.4901ZM34.5236 63.1481C32.6306 62.9511 31.0026 60.0201 30.8126 56.3441C30.6156 52.4691 32.0946 49.2351 34.1176 49.1221C34.1786 49.1191 34.2386 49.1271 34.2996 49.1301C34.3606 49.1251 34.4186 49.1151 34.4816 49.1161C36.5046 49.1641 38.0876 52.3481 38.0126 56.2281C37.9426 59.9091 36.4086 62.8911 34.5236 63.1481ZM38.1176 45.2111C37.7656 45.3971 37.2316 45.0751 36.9256 44.4941C36.6176 43.9121 36.6536 43.2901 37.0036 43.1041C37.3536 42.9181 37.8896 43.2401 38.1956 43.8221C38.5036 44.4031 38.4676 45.0251 38.1176 45.2111ZM43.2376 34.1691C40.5766 34.7281 38.0956 33.4771 37.6986 31.3721C37.3016 29.2681 39.1366 27.1081 41.7996 26.5501C44.4626 25.9921 46.9446 27.2431 47.3416 29.3471C47.7376 31.4501 45.9006 33.6091 43.2376 34.1691Z" fill="#FF4757"/>
</svg>
