<svg width="68" height="92" viewBox="0 0 68 92" fill="none" xmlns="http://www.w3.org/2000/svg">
<path fill-rule="evenodd" clip-rule="evenodd" d="M66.7734 22.2231C67.1367 23.0238 67.332 23.9106 67.332 24.809V85.582C67.332 87.2422 66.6757 88.832 65.5039 90.0039C64.332 91.1758 62.7422 91.832 61.082 91.832H6.91797C3.46487 91.832 0.667969 89.0351 0.667969 85.582V6.41797C0.667969 4.75777 1.32422 3.16797 2.49607 1.99607C3.66792 0.824168 5.25777 0.167969 6.91797 0.167969H42.691C43.5894 0.167969 44.4762 0.363279 45.2769 0.726559C45.9527 1.03515 46.5738 1.46094 47.1089 1.99606L65.5039 20.3911C66.039 20.9262 66.4648 21.5473 66.7734 22.2231ZM20.4574 75.1681H47.5434C48.6918 75.1681 49.6254 74.2345 49.6254 73.0822C49.6254 71.9338 48.6918 71.0002 47.5434 71.0002H20.4574C19.309 71.0002 18.3754 71.9338 18.3754 73.0822C18.3754 74.2345 19.309 75.1681 20.4574 75.1681ZM42.3324 41.8321H56.9184C58.0668 41.8321 59.0004 40.8985 59.0004 39.7501C59.0004 38.6017 58.0668 37.6681 56.9184 37.6681H42.3324C41.184 37.6681 40.2504 38.6017 40.2504 39.7501C40.2504 40.8985 41.184 41.8321 42.3324 41.8321ZM29.8324 37.668H17.3324C13.8832 37.668 11.0824 40.4649 11.0824 43.918V60.582C11.0824 64.0351 13.8832 66.832 17.3324 66.832H29.8324C33.2855 66.832 36.0824 64.0351 36.0824 60.582V43.918C36.0824 40.4649 33.2855 37.668 29.8324 37.668ZM29.8324 41.8321C30.9847 41.8321 31.9183 42.7657 31.9183 43.918V60.582C31.9183 61.7343 30.9847 62.6679 29.8324 62.6679H17.3324C16.184 62.6679 15.2504 61.7343 15.2504 60.582V43.918C15.2504 42.7657 16.184 41.8321 17.3324 41.8321H29.8324ZM60.2234 21.0001L46.5004 7.27707V18.9181C46.5004 20.0665 47.434 21.0001 48.5824 21.0001H60.2234ZM42.3324 58.5001H56.9184C58.0668 58.5001 59.0004 57.5665 59.0004 56.4181C59.0004 55.2658 58.0668 54.3322 56.9184 54.3322H42.3324C41.184 54.3322 40.2504 55.2658 40.2504 56.4181C40.2504 57.5665 41.184 58.5001 42.3324 58.5001ZM29.8324 10.5821H17.3324C15.6762 10.5821 14.0863 11.2422 12.9144 12.4141C11.7425 13.586 11.0824 15.1758 11.0824 16.8321V25.168C11.0824 26.8242 11.7425 28.4141 12.9144 29.586C14.0863 30.7579 15.6761 31.418 17.3324 31.418H29.8324C31.4926 31.418 33.0824 30.7578 34.2543 29.586C35.4262 28.4141 36.0824 26.8243 36.0824 25.168V16.8321C36.0824 15.1759 35.4261 13.586 34.2543 12.4141C33.0824 11.2422 31.4926 10.5821 29.8324 10.5821ZM29.8324 14.7501C30.3871 14.7501 30.9183 14.9688 31.3051 15.3594C31.6996 15.7501 31.9184 16.2813 31.9184 16.8321V25.168C31.9184 25.7188 31.6996 26.25 31.3051 26.6407C30.9184 27.0314 30.3871 27.2501 29.8324 27.2501H17.3324C16.7816 27.2501 16.2504 27.0314 15.8597 26.6407C15.469 26.2501 15.2503 25.7189 15.2503 25.168V16.8321C15.2503 16.2814 15.4691 15.7501 15.8597 15.3594C16.2503 14.9687 16.7816 14.7501 17.3324 14.7501H29.8324ZM42.3324 66.8321H56.9184C58.0668 66.8321 59.0004 65.8985 59.0004 64.7501C59.0004 63.6017 58.0668 62.6681 56.9184 62.6681H42.3324C41.184 62.6681 40.2504 63.6017 40.2504 64.7501C40.2504 65.8985 41.184 66.8321 42.3324 66.8321ZM42.3324 50.1681H56.9184C58.0668 50.1681 59.0004 49.2345 59.0004 48.0822C59.0004 46.9338 58.0668 46.0002 56.9184 46.0002H42.3324C41.184 46.0002 40.2504 46.9338 40.2504 48.0822C40.2504 49.2345 41.184 50.1681 42.3324 50.1681ZM25.6684 83.5001H42.3324C43.4847 83.5001 44.4183 82.5665 44.4183 81.4181C44.4183 80.2658 43.4847 79.3322 42.3324 79.3322H25.6684C24.5161 79.3322 23.5825 80.2658 23.5825 81.4181C23.5825 82.5665 24.5161 83.5001 25.6684 83.5001Z" fill="black"/>
</svg>
