<svg width="92" height="72" viewBox="0 0 92 72" fill="none" xmlns="http://www.w3.org/2000/svg">
<path d="M27 29.2895C28.5508 29.6723 30.1875 29.2738 31.3906 28.2192C33.9101 25.809 33.3203 20.4692 33.3125 20.4106H33.3086C33.2891 20.2192 33.4141 20.0434 33.6016 20.0004C33.6992 19.9848 33.8008 20.0121 33.8789 20.0746C33.9609 20.1371 34.0117 20.2309 34.0195 20.3285C34.0195 20.559 34.6602 26.0902 31.8789 28.7582V28.7621C30.8789 29.6918 29.5469 30.1879 28.1797 30.141C27.7305 30.1332 27.2813 30.0864 26.8399 30.0004C26.6368 29.9653 26.5001 29.7739 26.5313 29.5707C26.5548 29.4692 26.6173 29.3832 26.7071 29.3325C26.7931 29.2778 26.9024 29.2621 27 29.2895ZM66.059 43.0005C66.1215 43.1137 66.1215 43.2466 66.059 43.3598C65.852 44.0005 59.809 59.0008 50.34 61.4618C47.0197 62.3408 43.6798 61.5634 40.4103 59.1532L40.2814 65.8329V65.829C40.2775 65.9736 40.1916 66.1025 40.0587 66.1611C39.4689 66.4423 28.4807 71.54 19.3677 71.54H19.3716C16.8677 71.6415 14.3833 71.1142 12.1411 70.0009C11.981 69.8876 11.9302 69.6727 12.024 69.5009C12.1216 69.3329 12.3325 69.2626 12.5122 69.3407C20.6528 73.8602 37.5122 66.5399 39.5122 65.6102L39.6607 58.4188V58.4227C39.6646 58.2821 39.7466 58.1532 39.8716 58.0907C39.9927 58.0165 40.149 58.0165 40.2701 58.0907C43.5318 60.7001 46.8482 61.579 50.1295 60.7118C58.1998 58.5829 63.9185 46.4818 65.1295 43.7118C60.5006 44.1415 57.1295 43.4501 55.1295 41.661C54.4185 41.036 53.8834 40.2391 53.5787 39.3407L48.1412 50.0007C48.0865 50.1179 47.9771 50.196 47.8521 50.2116C47.7271 50.2194 47.606 50.1726 47.5201 50.0788C45.3639 47.278 43.4263 44.3171 41.7193 41.2194C38.5005 35.6686 32.3091 35.2194 31.2193 35.2194L28.5084 39.0983L28.5123 39.1022C28.4459 39.1882 28.3482 39.2428 28.2388 39.2507C28.1412 39.2507 28.0435 39.2116 27.9693 39.1413L25.5709 36.8015L23.4693 40.0007C23.4068 40.0944 23.3052 40.153 23.192 40.1608C23.0865 40.1647 22.9888 40.1179 22.9224 40.0398L20.0005 37.0007C19.856 36.8522 19.8599 36.6139 20.0123 36.4694C20.1607 36.3288 20.3951 36.3327 20.5396 36.4811L23.0982 39.1022L25.0005 36.2389L21.7817 33.1178V33.1217C21.6372 32.9733 21.6372 32.7389 21.7817 32.5905C21.852 32.5202 21.9458 32.4772 22.0473 32.4772C22.145 32.4772 22.2426 32.5202 22.309 32.5905L25.4184 35.5905L27.727 32.0593H27.7309C27.727 32.0319 27.727 32.0007 27.7309 31.9694V30.5592C27.7622 30.3756 27.9184 30.2428 28.1059 30.2428C28.2934 30.2428 28.4497 30.3756 28.4809 30.5592V31.6998C28.5591 31.7623 28.6059 31.8522 28.6099 31.9498L31.2114 34.4186C32.3325 34.4186 38.9732 34.86 42.4025 40.7897H42.3985C44.0196 43.6647 45.8165 46.4381 47.7813 49.0905L53.4297 38.0005C53.5118 37.8482 53.6837 37.774 53.8516 37.8091C54.0196 37.8482 54.1407 37.9966 54.1407 38.1724C54.2344 39.3052 54.7891 40.3521 55.6719 41.0708C57.5821 42.77 61.0625 43.3794 65.6719 42.8599C65.8164 42.8247 65.9692 42.8794 66.059 43.0005ZM30.528 34.8013L28.2194 32.6099L26.0006 36.1294L28.1998 38.2583L30.528 34.8013ZM8.00101 66.2703H7.00101C4.82911 66.1726 2.89551 64.8641 2.00101 62.8797C-2.20989 53.8797 6.91121 39.4387 9.39161 36.3287C11.6533 33.5084 16.8721 34.5084 18.1104 34.7896L19.001 33.4107C19.0557 33.3286 19.1417 33.27 19.2393 33.2505C19.337 33.231 19.4385 33.2544 19.5206 33.3091C19.6885 33.4302 19.7354 33.6568 19.6221 33.8286L18.5713 35.3794C18.4776 35.5083 18.3174 35.5669 18.1612 35.5318C18.1026 35.5318 12.1612 33.981 9.96196 36.7506C7.96196 39.2701 -1.40904 53.8526 2.66116 62.5126C3.42288 64.2626 5.12206 65.4306 7.03226 65.5126C13.6221 66.1923 24.5013 58.9032 27.7703 54.8016L20.0008 45.3602C13.3914 51.7704 11.1805 53.9188 10.3406 54.5594V54.6492C9.989 54.9109 9.91868 54.8602 9.82103 54.7781V54.782C9.67259 54.6609 9.63353 54.4539 9.73119 54.2898C9.73119 54.2391 9.87963 53.7898 10.0202 53.2898C11.0202 49.6687 12.2897 45.821 13.3796 44.6609C13.5203 44.5125 13.7586 44.5047 13.907 44.6453C14.0554 44.7859 14.0632 45.0203 13.9226 45.1727C12.8523 46.3133 11.4734 50.993 10.8132 53.2508C12.6921 51.4617 16.8132 47.4305 19.8132 44.5399H19.8093C19.8913 44.4695 19.9929 44.4344 20.1023 44.4422C20.2038 44.4422 20.2976 44.4891 20.3601 44.5711L22.0984 46.6727C22.8796 43.8329 23.9382 40.7938 24.9382 40.7938L24.9421 40.7899C25.5944 40.8524 26.2077 41.118 26.6999 41.5516C28.2897 40.1219 32.3796 36.6922 33.6999 38.0008C33.9421 38.243 34.0632 38.5789 34.0319 38.9227C33.9304 40.2235 31.8835 42.0008 30.9538 42.7508H30.9499C31.5788 43.1649 31.9694 43.8602 32.0007 44.6102C32.5085 44.8094 32.9421 45.1571 33.239 45.6102C33.6101 46.2469 33.7195 46.9969 33.5515 47.7118C34.0242 48.0829 34.3562 48.6024 34.489 49.1923C34.5984 49.8486 34.3953 50.5165 33.9421 51.0009C33.8562 51.1025 33.7234 51.1532 33.5906 51.1298C32.7195 50.9697 31.5906 50.9892 31.4617 51.2783C31.4109 51.3486 31.3601 51.4501 31.3015 51.5478C30.8406 52.3759 29.9421 53.958 28.3601 54.3095L28.5789 54.5595C28.6843 54.7001 28.6843 54.8915 28.5789 55.0321C25.532 59.0594 15.059 66.2703 8.00101 66.2703ZM22.661 47.3793L27.7899 53.559C29.3094 53.559 30.1688 51.9887 30.6415 51.1371L30.8212 50.8363C31.2821 50.0746 32.8212 50.2074 33.5009 50.2972V50.3011C33.7157 50.0316 33.8134 49.6917 33.7822 49.3519C33.6767 48.9261 33.4189 48.5511 33.0595 48.3011L30.8993 48.5121C30.7079 48.5081 30.5516 48.3597 30.5321 48.1722C30.5204 48.0707 30.5477 47.973 30.6102 47.8949C30.6727 47.8207 30.7626 47.7699 30.8602 47.7621L32.8602 47.5628V47.5589C32.9774 47.0511 32.9071 46.512 32.661 46.0511C32.4227 45.68 32.0712 45.3988 31.661 45.2504L29.2391 45.9496H29.1375H29.1415C28.9735 45.9496 28.829 45.8402 28.7821 45.68C28.7547 45.5863 28.7625 45.4847 28.8094 45.3988C28.8563 45.3129 28.9383 45.2465 29.0321 45.2191L31.3133 44.5589C31.3133 43.9183 30.6727 43.3987 30.3133 43.1878L28.4031 44.2776L28.3992 44.2816C28.3445 44.3089 28.282 44.3284 28.2195 44.3284C28.0867 44.3284 27.9617 44.2581 27.8914 44.1409C27.8406 44.055 27.8289 43.9534 27.8523 43.8558C27.8796 43.7581 27.9421 43.68 28.032 43.6292L30.1101 42.4495C31.3093 41.5511 33.2195 39.7893 33.2898 38.8479V38.8518C33.3093 38.7307 33.2703 38.6057 33.1804 38.5198C32.5789 37.9299 29.4812 40.0081 26.9499 42.3284C26.8757 42.3987 26.7819 42.4339 26.6804 42.4299C26.5788 42.4221 26.4851 42.3753 26.4226 42.301C26.0202 41.8792 25.489 41.6057 24.9109 41.5315C24.4421 41.7307 23.3719 44.68 22.661 47.3793ZM68.481 31.6213L59.8912 29.9104C59.7154 29.8713 59.5396 29.9651 59.4693 30.1291L59.0006 31.2385C58.0006 30.008 56.3209 28.0666 55.4225 28.2385C55.1608 28.2776 54.942 28.4612 54.86 28.7112C54.3483 30.0198 55.7115 34.2112 56.0084 35.0901L55.3482 37.1682L55.3521 37.1721C55.2857 37.3674 55.3912 37.5822 55.5904 37.6486C55.7896 37.7072 55.9967 37.5979 56.0592 37.3986L56.7584 35.1994H56.7623C56.7896 35.1252 56.7896 35.0432 56.7623 34.969C56.1217 33.1096 55.2311 29.8284 55.524 28.969C55.9654 28.969 57.4654 30.4495 58.8131 32.219H58.8092C58.8912 32.3284 59.0201 32.383 59.1529 32.3674C59.2857 32.3518 59.399 32.2659 59.4498 32.1409L60.0006 30.6995L68.0006 32.2815C67.8209 33.8323 66.9225 40.2034 64.5709 41.6409C64.3951 41.7502 64.3404 41.9846 64.4498 42.1604C64.5162 42.2737 64.6373 42.344 64.7701 42.3401C64.8404 42.3401 64.9107 42.3166 64.9693 42.2815C67.9693 40.4612 68.7584 32.3596 68.7896 32.0195C68.8092 31.8242 68.6724 31.6525 68.481 31.6213ZM39.422 54.8013V46.8013C39.3908 46.6177 39.2306 46.481 39.047 46.481C38.8595 46.481 38.6994 46.6177 38.672 46.8013V54.8013C38.6525 54.9106 38.6837 55.0239 38.754 55.1099C38.8283 55.1919 38.9337 55.2427 39.047 55.2427C39.1564 55.2427 39.2619 55.1919 39.3361 55.1099C39.4064 55.0239 39.4376 54.9106 39.422 54.8013ZM90.422 7.80127C89.922 7.08643 89.1525 6.60597 88.2892 6.46927L52.3982 0.469266C51.5427 0.328646 50.6638 0.531766 49.9607 1.03958C49.2537 1.54739 48.7771 2.31298 48.6287 3.17238L44.9998 25.1294C44.7108 26.9146 45.9178 28.5982 47.699 28.8989L51.699 29.559C51.8045 29.5942 51.9217 29.5825 52.0154 29.5278C52.1092 29.4692 52.1756 29.3754 52.1951 29.2661C52.2146 29.1567 52.1834 29.0434 52.1131 28.9575C52.0428 28.8754 51.9412 28.8247 51.8279 28.8208L47.8279 28.1606C47.1717 28.059 46.5818 27.6997 46.1912 27.1606C45.7928 26.6176 45.6365 25.9418 45.7498 25.2817L49.3904 3.3517C49.6248 1.9767 50.9216 1.047 52.3006 1.2697L88.1916 7.2697C89.5666 7.50017 90.5002 8.8009 90.2697 10.1799L86.6486 31.9999C86.5509 32.6601 86.1877 33.2499 85.6486 33.6405C85.1095 34.035 84.4298 34.1952 83.7697 34.078L74.1213 32.4764V32.4803C74.0197 32.4608 73.9182 32.4803 73.8361 32.5389C73.7541 32.5975 73.7033 32.6912 73.6916 32.7889C73.6721 32.8866 73.6955 32.9881 73.7502 33.0662C73.8088 33.1483 73.8947 33.203 73.9885 33.2186L83.6487 34.8202C83.8284 34.8358 84.012 34.8358 84.1917 34.8202C84.8752 34.8202 85.5394 34.6053 86.0901 34.1991C86.7971 33.6991 87.2776 32.9335 87.4221 32.078L91.0002 10.238C91.1525 9.38643 90.9572 8.50749 90.4611 7.80049L90.422 7.80127ZM84.1212 32.2893L48.1212 26.2893C47.9454 26.2619 47.7892 26.1643 47.6876 26.0197C47.5861 25.8752 47.547 25.6955 47.5782 25.5197L51.2188 3.59774V3.60164C51.2735 3.28133 51.547 3.05086 51.8712 3.05086L87.8712 9.05086C88.0431 9.08211 88.1993 9.17586 88.3009 9.32039C88.4024 9.46102 88.4415 9.6368 88.4102 9.80867L84.8086 31.7387C84.754 32.0551 84.4805 32.2856 84.1602 32.2895L84.1212 32.2893ZM84.0431 31.5197L87.6993 9.76974L52.0003 3.84004L48.3597 25.59L84.0431 31.5197ZM27.0431 20.9107H27.0392C26.8361 20.9107 26.672 21.0748 26.672 21.2818V22.1334V22.1295C26.6525 22.2389 26.6837 22.3521 26.754 22.4381C26.8282 22.524 26.9337 22.5709 27.047 22.5709C27.1564 22.5709 27.2618 22.524 27.3361 22.4381C27.4064 22.3521 27.4376 22.2388 27.422 22.1295V21.2779V21.2818C27.422 21.0982 27.2892 20.942 27.1095 20.9107H27.0431ZM32.1212 21.5318V20.481C32.1212 20.3795 32.0782 20.2857 32.0079 20.2154C31.9376 20.1451 31.8399 20.106 31.7384 20.1099C31.6407 20.106 31.547 20.1451 31.4767 20.2154C31.4063 20.2857 31.3673 20.3834 31.3712 20.481V21.5318C31.3673 21.6295 31.4063 21.7271 31.4767 21.7974C31.5431 21.8717 31.6407 21.9107 31.7384 21.9107C31.8517 21.9303 31.9688 21.9029 32.0548 21.8287C32.1407 21.7545 32.1915 21.6451 32.1915 21.5318L32.1212 21.5318ZM29.6212 20.731C29.4727 20.5865 29.2384 20.5865 29.0899 20.731C28.6642 21.231 28.6642 21.9693 29.0899 22.4693C29.254 22.6529 29.4259 22.8287 29.6095 22.9889C29.8204 23.1803 30.129 23.4576 30.1212 23.5904C30.1095 23.7193 30.0001 23.7897 29.7227 23.9615H29.7188C29.5782 24.0514 29.5157 24.2193 29.5587 24.3795C29.6016 24.5397 29.7423 24.6529 29.9102 24.6607C29.9727 24.6764 30.0392 24.6764 30.1017 24.6607C30.5821 24.3717 30.8321 24.0709 30.8634 23.7193C30.922 23.1998 30.4923 22.8209 30.1134 22.481H30.1095C29.961 22.3482 29.8165 22.2076 29.6798 22.0592C29.4806 21.8443 29.4806 21.5084 29.6798 21.2896C29.7579 21.2193 29.8009 21.1178 29.8048 21.0123C29.8048 20.9068 29.7657 20.8053 29.6915 20.731L29.6212 20.731ZM26.7228 26.6099H26.7189C26.6212 26.7896 26.6759 27.0123 26.8517 27.1217C26.9337 27.1724 27.0353 27.1881 27.129 27.1646C27.2267 27.1451 27.3087 27.0826 27.3595 27.0006C27.6408 26.5592 28.09 26.2545 28.6017 26.149C29.2736 26.1725 29.8986 26.5045 30.2892 27.0514C30.3556 27.1373 30.4611 27.1842 30.5704 27.1803C30.6642 27.1764 30.7501 27.1412 30.8204 27.0787C30.965 26.9342 30.965 26.6998 30.8204 26.5514C30.2775 25.817 29.4142 25.3912 28.5001 25.3991C27.7853 25.5475 27.1682 25.985 26.7893 26.61L26.7228 26.6099ZM15.6208 23.9302C15.3903 24.6802 14.9411 26.6099 15.6794 27.9302C15.9723 28.4381 16.4411 28.8209 16.9997 29.0005C16.8161 29.731 16.9372 30.5005 17.3278 31.1411C18.0348 31.9966 19.113 32.4536 20.2184 32.3599C20.4215 32.3599 20.5856 32.1998 20.5895 32.0006L20.82 26.2311C20.82 26.1256 20.7809 26.0279 20.7106 25.9498C20.6403 25.8717 20.5348 25.8326 20.4293 25.8404C19.8434 25.8482 19.277 25.6412 18.8277 25.2623C18.523 24.9029 18.3863 24.4264 18.4606 23.9615C18.4606 23.6334 18.6207 23.3287 18.8902 23.1412C19.652 22.6607 21.2613 23.1412 21.8121 23.3131L21.8082 23.3092C21.8707 23.3209 21.9371 23.3209 21.9996 23.3092C23.1637 23.1178 24.1949 22.4537 24.8512 21.4694C25.3864 20.4303 25.4411 19.2038 24.9997 18.1217H29.2497C29.3669 18.1217 29.4723 18.067 29.5387 17.9693C29.902 17.4928 30.4177 17.149 30.9996 17.0006C31.195 16.9928 31.3825 17.0748 31.5114 17.2193C32.6012 18.3482 32.9997 18.3795 33.2302 18.2779V18.2818C33.2888 18.2584 33.3395 18.2193 33.3786 18.1725C33.8981 17.5436 36.4997 14.2936 36.0075 12.9342L36.0114 12.9303C35.8825 12.61 35.5973 12.3834 35.2614 12.3209C34.4333 12.1529 33.5934 12.0435 32.7497 12.0006C32.8005 10.9694 32.5114 9.95367 31.9294 9.10217C31.6325 8.77405 31.2107 8.58655 30.7692 8.57873C29.6833 8.59826 28.6247 8.89904 27.6911 9.44982C27.6247 9.09435 27.4606 8.76623 27.2184 8.5006C26.652 7.97326 25.8707 7.74279 25.109 7.87169C22.4371 8.07091 18.9488 11.9733 18.6402 15.9733V15.9694C17.3433 15.7194 16.0035 15.9225 14.8394 16.5397C14.2769 16.9381 13.9137 17.5553 13.8394 18.2389C13.5387 20.8717 14.4685 23.1802 15.6208 23.9302ZM69.7618 9.78225C68.6368 9.57522 67.5587 10.3174 67.3516 11.4424L66.25 17.4424C66.1445 17.9854 66.2656 18.5479 66.5781 19.001C66.8945 19.4503 67.3711 19.7589 67.9101 19.8604C68.0351 19.8721 68.164 19.8721 68.289 19.8604C69.2773 19.8331 70.1093 19.1221 70.289 18.1495L71.3906 12.1495C71.5742 11.0518 70.8516 10.001 69.7618 9.78225ZM67.7618 20.5632V20.5593C67.2227 20.4617 66.6641 20.5828 66.2149 20.8914C65.7657 21.2039 65.4571 21.6804 65.3594 22.2195C65.1641 23.3328 65.8907 24.3992 67 24.6218C67.125 24.6296 67.2461 24.6296 67.3711 24.6218C68.4453 24.6296 69.3438 23.8171 69.4414 22.7468C69.5391 21.6765 68.7969 20.7116 67.7383 20.532L67.7618 20.5632Z" fill="black"/>
</svg>
